<?xml version="1.0" encoding="utf-8"?>
<!-- Generator: Adobe Illustrator 23.1.0, SVG Export Plug-In . SVG Version: 6.00 Build 0)  -->
<svg version="1.1" id="Layer_1" xmlns="http://www.w3.org/2000/svg" xmlns:xlink="http://www.w3.org/1999/xlink" x="0px" y="0px"
	 viewBox="0 0 1280 1024" style="enable-background:new 0 0 1280 1024;" xml:space="preserve">
<g>
	<path d="M510.51,424.03h23.65v44.3h36.1v-44.3h23.65v115.59h-23.65v-50.66h-36.1v50.66h-23.65V424.03z"/>
	<path d="M510.25,476.21c0,0.11-0.01,0.23-0.03,0.35c-0.02,0.12-0.05,0.26-0.09,0.39c-0.04,0.14-0.09,0.29-0.15,0.46
		s-0.13,0.35-0.22,0.54l-19.08,35.55c-0.17,0.31-0.38,0.55-0.65,0.75c-0.27,0.19-0.67,0.35-1.21,0.46
		c-0.54,0.11-1.22,0.19-2.05,0.23c-0.83,0.04-1.86,0.06-3.11,0.06c-1.24,0-2.28-0.03-3.11-0.08c-0.83-0.06-1.5-0.14-2.02-0.25
		c-0.52-0.11-0.92-0.26-1.21-0.46c-0.29-0.19-0.52-0.43-0.68-0.71l-22.01-36.55c-0.17-0.33-0.3-0.62-0.4-0.87
		c-0.1-0.25-0.17-0.44-0.19-0.56c-0.02-0.12-0.03-0.23-0.03-0.31c0-0.22,0.08-0.42,0.25-0.58c0.16-0.17,0.44-0.3,0.84-0.4
		c0.39-0.1,0.91-0.16,1.55-0.19c0.64-0.03,1.44-0.04,2.39-0.04c1.2,0,2.16,0.02,2.89,0.06c0.72,0.04,1.28,0.12,1.68,0.23
		c0.39,0.11,0.68,0.25,0.87,0.42c0.19,0.17,0.36,0.37,0.53,0.62l18.78,31.85l0.25,0.5l0.19-0.5l15.6-30.85
		c0.08-0.25,0.23-0.46,0.43-0.62c0.21-0.17,0.51-0.3,0.9-0.42c0.39-0.11,0.93-0.19,1.62-0.23c0.68-0.04,1.58-0.06,2.7-0.06
		c0.95,0,1.74,0.01,2.36,0.04c0.62,0.03,1.11,0.1,1.46,0.21c0.35,0.11,0.6,0.24,0.75,0.39C510.18,475.8,510.25,475.98,510.25,476.21
		z"/>
	<path d="M652,475.21c0,0.11-0.01,0.23-0.03,0.35c-0.02,0.12-0.05,0.26-0.09,0.39c-0.04,0.14-0.09,0.29-0.15,0.46
		c-0.06,0.17-0.14,0.35-0.22,0.54l-24.08,36.55c-0.17,0.31-0.38,0.55-0.65,0.75c-0.27,0.19-0.67,0.35-1.21,0.46
		c-0.54,0.11-1.22,0.19-2.05,0.23c-0.83,0.04-1.86,0.06-3.11,0.06c-1.24,0-2.28-0.03-3.11-0.08c-0.83-0.06-1.5-0.14-2.02-0.25
		c-0.52-0.11-0.92-0.26-1.21-0.46c-0.29-0.19-0.52-0.43-0.68-0.71l-19.01-35.55c-0.17-0.33-0.3-0.62-0.4-0.87
		c-0.1-0.25-0.17-0.44-0.19-0.56c-0.02-0.12-0.03-0.23-0.03-0.31c0-0.22,0.08-0.42,0.25-0.58c0.16-0.17,0.45-0.3,0.84-0.4
		c0.39-0.1,0.91-0.16,1.55-0.19c0.64-0.03,1.44-0.04,2.39-0.04c1.2,0,2.16,0.02,2.89,0.06c0.72,0.04,1.28,0.12,1.68,0.23
		c0.39,0.11,0.68,0.25,0.87,0.42c0.19,0.17,0.36,0.37,0.53,0.62l15.78,30.85l0.25,0.5l0.19-0.5l20.6-31.85
		c0.08-0.25,0.23-0.46,0.44-0.62c0.21-0.17,0.51-0.3,0.9-0.42c0.39-0.11,0.93-0.19,1.62-0.23c0.68-0.04,1.58-0.06,2.7-0.06
		c0.95,0,1.74,0.01,2.36,0.04c0.62,0.03,1.11,0.1,1.46,0.21c0.35,0.11,0.6,0.24,0.75,0.39C651.93,474.8,652,474.98,652,475.21z"/>
</g>
</svg>
